<?xml version="1.0" encoding="UTF-8"?>
<svg id="Layer_1" xmlns="http://www.w3.org/2000/svg" version="1.1" xmlns:xlink="http://www.w3.org/1999/xlink" viewBox="0 0 518.36 366.59">
  <!-- Generator: Adobe Illustrator 29.5.1, SVG Export Plug-In . SVG Version: 2.1.0 Build 141)  -->
  <defs>
    <style>
      .st0 {
        fill: url(#linear-gradient2);
      }

      .st1 {
        fill: url(#linear-gradient1);
      }

      .st2 {
        fill: url(#linear-gradient3);
      }

      .st3 {
        fill: url(#linear-gradient);
      }
    </style>
    <linearGradient id="linear-gradient" x1="183.82" y1="117.68" x2="56.49" y2="255.11" gradientUnits="userSpaceOnUse">
      <stop offset="0" stop-color="#0a3d4d"/>
      <stop offset="1" stop-color="#39b4b7"/>
    </linearGradient>
    <linearGradient id="linear-gradient1" x1="82.12" y1="147.79" x2="334.43" y2="147.79" xlink:href="#linear-gradient"/>
    <linearGradient id="linear-gradient2" x1="210.89" y1="224.07" x2="445.64" y2="224.07" xlink:href="#linear-gradient"/>
    <linearGradient id="linear-gradient3" x1="308.75" y1="172.11" x2="518.85" y2="172.11" xlink:href="#linear-gradient"/>
  </defs>
  <path class="st3" d="M84.02,367.23l-.71-.71,157.68-157.68c4.07-4.07,4.07-10.7,0-14.77L109.93,63c-1.97-1.97-4.59-3.06-7.38-3.06s-5.41,1.09-7.38,3.06l-31.57,31.57c-4.07,4.07-4.07,10.69,0,14.76l84.02,84.02c4.45,4.46,4.45,11.72,0,16.19L.35,356.81l-.71-.71,147.27-147.27c4.06-4.07,4.06-10.7,0-14.77L62.89,110.04c-4.46-4.46-4.46-11.72,0-16.18l31.57-31.57c4.46-4.46,11.72-4.46,16.18,0l131.06,131.06c4.46,4.46,4.46,11.72,0,16.19l-157.68,157.68Z"/>
  <path class="st1" d="M191.93,300.17c-2.93,0-5.86-1.12-8.09-3.35l-31.57-31.57c-4.46-4.46-4.46-11.72,0-16.18l84.02-84.02c4.06-4.07,4.06-10.7,0-14.77L82.12-3.89l.71-.71,154.17,154.17c4.45,4.46,4.45,11.72,0,16.19l-84.02,84.02c-4.07,4.07-4.07,10.69,0,14.76l31.57,31.57c4.07,4.07,10.69,4.07,14.76,0l131.06-131.06c1.98-1.98,3.06-4.6,3.06-7.39s-1.09-5.41-3.06-7.39L177.66-2.42l.71-.71,152.71,152.71c2.16,2.16,3.36,5.04,3.36,8.09s-1.19,5.93-3.36,8.09l-131.06,131.06c-2.23,2.23-5.16,3.35-8.09,3.35Z"/>
  <path class="st0" d="M211.59,367.23l-.7-.71,64.34-63.45,72.28-72.28c4.06-4.07,4.06-10.7,0-14.77l-84.02-84.02c-4.46-4.46-4.46-11.72,0-16.18l31.57-31.57c4.46-4.46,11.72-4.46,16.18,0l131.06,131.06c4.46,4.46,4.46,11.72,0,16.19l-135.45,135.45-.71-.71,135.45-135.45c4.07-4.07,4.07-10.7,0-14.77l-131.06-131.06c-4.07-4.07-10.69-4.07-14.76,0l-31.57,31.57c-1.97,1.97-3.06,4.59-3.06,7.38s1.09,5.41,3.06,7.38l84.02,84.02c4.45,4.46,4.45,11.72,0,16.19l-72.28,72.28-64.34,63.45Z"/>
  <path class="st2" d="M376.35,344.58c-3.06,0-5.93-1.19-8.09-3.35l-31.57-31.57c-2.16-2.16-3.35-5.03-3.35-8.09s1.19-5.93,3.35-8.09l84.02-84.02c4.06-4.07,4.06-10.7,0-14.77l-72.28-72.28-39.69-38.8.7-.71,39.69,38.8,72.28,72.28c4.45,4.46,4.45,11.72,0,16.19l-84.02,84.02c-4.07,4.07-4.07,10.69,0,14.76l31.57,31.57c1.97,1.97,4.59,3.06,7.38,3.06s5.41-1.09,7.38-3.06l131.06-131.06c4.07-4.07,4.07-10.7,0-14.77L320.46.35l.71-.71,194.34,194.34c4.46,4.46,4.46,11.72,0,16.19l-131.06,131.06c-2.16,2.16-5.03,3.35-8.09,3.35Z"/>
</svg>