<?xml version="1.0" encoding="UTF-8"?>
<svg id="Layer_1" data-name="Layer 1" xmlns="http://www.w3.org/2000/svg" xmlns:xlink="http://www.w3.org/1999/xlink" viewBox="0 0 322.28 344.66">
  <defs>
    <style>
      .cls-1 {
        fill: url(#linear-gradient);
      }
    </style>
    <linearGradient id="linear-gradient" x1="105.63" y1="351.86" x2="295.86" y2="7.02" gradientUnits="userSpaceOnUse">
      <stop offset="0" stop-color="#0a3d4d"/>
      <stop offset="1" stop-color="#3cb4b7"/>
    </linearGradient>
  </defs>
  <path class="cls-1" d="M271.11,171.44h-35.1l-33-57.16h-63.27l-16.19-28.03.14-.25L172.74,1.06h98.37l.14.25,49.04,84.94-.14.25-49.04,84.94ZM236.59,170.44h33.94l48.61-84.19L270.53,2.06h-97.21l-48.61,84.19,15.61,27.03h63.27l33,57.16ZM237.17,171.44h-64.42l-33.58-58.16h64.42l33.58,58.16ZM173.32,170.44h62.12l-32.42-56.16h-62.12l32.42,56.16ZM158.44,196.63l-10.64-18.43h-67.38l37.48-64.92h22.42l33.58,58.16h-.91l-14.55,25.19ZM82.16,177.2h66.22l10.06,17.43,13.85-23.98-32.55-56.37h-21.26l-36.32,62.92ZM148.38,345.16H51.41l-.14-.25L2.92,261.18l.14-.25,48.34-83.73h30.75l-5.94,10.28,42.26,73.2h13.11l32.79,56.77-16,27.71ZM51.99,344.16h95.81l15.42-26.71-32.21-55.77h-13.11l-.14-.25-42.69-73.95,5.36-9.28h-28.44L4.08,261.18l47.91,82.98ZM132.17,261.68h-14.26l-.14-.25-42.69-73.95,5.94-10.28h67.38l10.64,18.43-.14.25-32.35,56.03,5.64,9.77ZM118.48,260.68h11.96l-5.06-8.77.14-.25,32.35-56.03-10.06-17.43h-66.22l-5.36,9.28,42.26,73.2ZM203.59,261.68h-7.59l-38.14-66.05,14.55-25.19h64.18l9.84,17.04-.14.25-42.69,73.95ZM196.58,260.68h6.43l42.26-73.2-9.26-16.04h-63.02l-13.97,24.19,37.56,65.05ZM266.48,333.37h-94.07l-9.19-15.92.14-.25,32.63-56.52h7.01l42.26-73.2-9.84-17.04h31.04l.14.25,46.88,81.22-.14.25-46.88,81.21ZM172.99,332.37h92.91l46.45-80.46-46.45-80.47h-28.74l9.26,16.04-.14.25-42.69,73.95h-7.01l-32.2,55.77,8.61,14.92ZM163.8,318.45l-33.37-57.77h66.72l-33.36,57.77ZM132.17,261.68l31.63,54.77,31.62-54.77h-63.26ZM197.16,261.68h-66.15l-5.64-9.77.14-.25,32.92-57.03,38.72,67.05ZM131.59,260.68h63.84l-36.98-64.05-31.91,55.28,5.06,8.77Z"/>
</svg>